<svg xmlns="http://www.w3.org/2000/svg" viewBox="0 0 100 60" fill="currentColor">
  <!-- 中国传统祥云纹 -->
  <path d="M10,40 Q5,35 10,30 Q15,25 20,30 Q25,20 35,25 Q40,15 50,20 Q55,10 65,15 Q75,10 80,20 Q90,15 95,25 Q100,30 95,35 Q100,40 95,45 Q90,50 80,45 Q75,55 65,50 Q55,55 50,45 Q40,50 35,45 Q25,55 20,45 Q10,50 10,40 Z"/>
  <!-- 内部卷曲 -->
  <path d="M25,35 Q20,30 25,28 Q30,25 32,30" fill="none" stroke="currentColor" stroke-width="1.5"/>
  <path d="M45,30 Q40,25 45,22 Q52,20 55,25" fill="none" stroke="currentColor" stroke-width="1.5"/>
  <path d="M70,32 Q65,27 70,25 Q77,22 80,28" fill="none" stroke="currentColor" stroke-width="1.5"/>
</svg>

